<svg width="537" height="298" viewBox="0 0 537 298" fill="none" xmlns="http://www.w3.org/2000/svg">
<g clip-path="url(#clip0)">
<path d="M213.492 293.527L153.055 178.961C160.532 176.048 169.02 179.067 172.962 186.04L218.332 266.296L399.857 94.0802C425.351 69.3383 444.9 53.0716 447.263 55.4922C449.626 57.9126 434.15 77.9408 408.656 102.683L213.492 293.527Z" fill="#FEF61F"/>
<path d="M146.132 114.185C149.525 114.231 152.267 115.241 154.362 117.214C156.54 119.188 157.611 121.57 157.573 124.361C157.544 126.559 156.84 128.452 155.461 130.041C154.168 131.546 152.419 132.283 150.215 132.253C148.349 132.228 146.746 131.614 145.404 130.413C144.148 129.212 143.534 127.597 143.561 125.567C143.599 122.777 145.071 120.513 147.979 118.777C147.396 117.923 146.511 117.488 145.324 117.472C142.017 117.428 138.988 118.698 136.239 121.282C133.492 123.782 131.329 126.883 129.752 130.582C128.176 134.282 127.365 137.781 127.321 141.078L126.958 167.967C126.906 171.857 127.972 174.577 130.156 176.129C132.426 177.681 135.808 178.488 140.302 178.549L140.267 181.212L137.215 181.044C128.568 180.674 123.058 180.473 120.683 180.441C118.478 180.411 113.472 180.513 105.665 180.746L105.701 178.082C109.263 178.13 111.773 177.53 113.232 176.281C114.692 174.947 115.445 172.547 115.492 169.081L116.027 129.382C116.079 125.493 115.397 122.651 113.979 120.856C112.561 119.06 110.071 118.139 106.509 118.091L106.545 115.427C109.255 115.718 111.883 115.88 114.427 115.914C119.77 115.986 124.188 115.454 127.681 114.317L127.468 130.171C129.051 125.964 131.519 122.234 134.871 118.981C138.308 115.729 142.061 114.13 146.132 114.185ZM191.901 114.802C200.551 114.919 207.466 117.887 212.647 123.708C217.914 129.445 220.469 138.106 220.313 149.689C220.157 161.273 217.369 169.862 211.95 175.455C206.615 181.05 199.623 183.788 190.973 183.672C182.322 183.555 175.364 180.628 170.097 174.891C164.915 169.155 162.403 160.495 162.559 148.911C162.715 137.327 165.46 128.738 170.795 123.144C176.215 117.466 183.25 114.685 191.901 114.802ZM191.867 117.339C186.778 117.27 182.714 119.837 179.676 125.039C176.637 130.157 175.045 138.17 174.898 149.077C174.751 159.985 176.127 168.037 179.026 173.235C181.924 178.433 185.918 181.066 191.007 181.135C196.095 181.204 200.158 178.679 203.196 173.561C206.234 168.443 207.826 160.431 207.973 149.523C208.12 138.616 206.744 130.563 203.846 125.365C200.948 120.083 196.955 117.407 191.867 117.339ZM262.23 115.75C267.912 115.826 272.813 117.246 276.931 120.007C280.883 122.683 282.831 125.964 282.779 129.854C282.749 132.052 282.09 133.777 280.801 135.028C279.511 136.28 277.892 136.892 275.941 136.866C273.991 136.839 272.344 136.268 271.002 135.15C269.661 133.948 269.003 132.374 269.03 130.43C269.054 128.654 269.582 127.181 270.616 126.011C271.651 124.757 272.934 123.928 274.467 123.526C273.64 121.993 272.13 120.704 269.938 119.659C267.832 118.616 265.549 118.078 263.089 118.045C259.952 118.003 257.012 118.978 254.271 120.971C251.531 122.878 249.239 126.146 247.395 130.773C245.553 135.314 244.581 141.348 244.479 148.873C244.338 159.359 245.931 167.033 249.258 171.899C252.587 176.679 256.965 179.106 262.393 179.18C266.04 179.229 269.488 178.218 272.739 176.148C276.075 174.078 278.834 170.817 281.014 166.364L283.419 167.285C281.913 172.085 279.144 176.192 275.11 179.605C271.163 183.019 266.051 184.684 259.775 184.599C254.517 184.528 249.743 183.11 245.455 180.347C241.251 177.584 237.954 173.649 235.562 168.543C233.172 163.351 232.023 157.374 232.114 150.61C232.206 143.761 233.518 137.689 236.049 132.396C238.665 127.103 242.241 123.007 246.775 120.108C251.312 117.125 256.463 115.672 262.23 115.75ZM346.804 168.774C345.215 173.404 342.277 177.381 337.992 180.706C333.791 183.948 328.724 185.528 322.787 185.448C316.766 185.367 311.568 183.944 307.194 181.179C302.822 178.329 299.482 174.436 297.173 169.5C294.95 164.481 293.883 158.715 293.971 152.205C294.07 144.848 295.343 138.481 297.791 133.101C300.239 127.721 303.644 123.624 308.008 120.807C312.373 117.906 317.44 116.494 323.206 116.572C330.839 116.675 336.659 119.079 340.667 123.784C344.762 128.406 346.745 135.41 346.619 144.795L306.801 144.259C306.515 146.623 306.351 149.327 306.31 152.371C306.235 157.951 307.06 162.825 308.785 166.992C310.595 171.161 312.969 174.406 315.906 176.729C318.93 178.969 322.095 180.111 325.403 180.156C329.474 180.211 333.091 179.286 336.255 177.384C339.42 175.482 342.092 172.262 344.274 167.725L346.804 168.774ZM322.665 118.975C318.679 118.921 315.218 120.819 312.282 124.67C309.346 128.521 307.487 134.246 306.707 141.847L334.439 142.221C334.697 135.628 333.796 130.119 331.735 125.693C329.759 121.269 326.736 119.03 322.665 118.975ZM379.416 117.329C382.469 117.371 385.176 117.872 387.539 118.834C389.9 119.796 391.794 120.921 393.219 122.209C394.142 122.898 394.901 123.247 395.495 123.255C397.022 123.275 397.979 121.427 398.369 117.712L401.295 117.751C400.899 121.89 400.633 129.074 400.495 139.306L397.569 139.266C396.711 133.673 394.95 129.041 392.286 125.368C389.705 121.696 385.786 119.826 380.528 119.755C377.475 119.713 374.961 120.568 372.987 122.317C371.013 123.981 370.006 126.336 369.965 129.38C369.926 132.339 370.91 134.848 372.918 136.904C374.927 138.876 378.16 141.288 382.617 144.139C383.375 144.572 384.51 145.306 386.023 146.341C389.889 148.931 392.997 151.214 395.346 153.19C397.694 155.167 399.572 157.434 400.98 159.99C402.472 162.547 403.196 165.474 403.152 168.772C403.077 174.352 400.897 178.678 396.615 181.75C392.417 184.823 387.265 186.317 381.159 186.235C377.343 186.184 374 185.546 371.133 184.324C369.28 183.369 367.556 182.204 365.964 180.829C365.629 180.486 365.25 180.312 364.826 180.306C364.232 180.298 363.675 180.714 363.155 181.553C362.719 182.393 362.364 183.572 362.089 185.09L359.164 185.051C359.567 180.236 359.851 171.782 360.014 159.691L362.94 159.731C363.766 167.692 365.381 173.676 367.788 177.682C370.194 181.605 374.366 183.606 380.303 183.686C383.271 183.726 385.913 182.789 388.229 180.876C390.545 178.962 391.731 175.933 391.787 171.79C391.832 168.492 390.724 165.687 388.465 163.373C386.291 161.06 382.681 158.263 377.636 154.981C373.516 152.304 370.322 150.104 368.055 148.383C365.872 146.662 364.035 144.565 362.542 142.092C361.048 139.62 360.324 136.735 360.368 133.437C360.44 128.11 362.276 124.075 365.875 121.333C369.475 118.591 373.988 117.256 379.416 117.329ZM436.313 118.096C439.366 118.137 442.074 118.639 444.436 119.601C446.798 120.563 448.691 121.688 450.116 122.976C451.04 123.665 451.799 124.013 452.392 124.021C453.919 124.042 454.877 122.194 455.266 118.479L458.192 118.518C457.797 122.657 457.53 129.841 457.392 140.073L454.466 140.033C453.609 134.44 451.848 129.807 449.183 126.135C446.603 122.463 442.684 120.592 437.425 120.522C434.372 120.48 431.859 121.334 429.884 123.084C427.911 124.748 426.903 127.103 426.862 130.147C426.823 133.106 427.807 135.614 429.815 137.671C431.824 139.643 435.057 142.055 439.514 144.906C440.272 145.339 441.407 146.073 442.92 147.108C446.787 149.697 449.895 151.981 452.243 153.957C454.592 155.934 456.47 158.2 457.877 160.756C459.369 163.314 460.093 166.241 460.049 169.539C459.974 175.119 457.795 179.445 453.512 182.517C449.315 185.589 444.162 187.084 438.056 187.002C434.24 186.951 430.898 186.313 428.03 185.091C426.178 184.136 424.454 182.971 422.861 181.596C422.527 181.253 422.147 181.079 421.723 181.073C421.13 181.065 420.572 181.48 420.052 182.319C419.617 183.16 419.261 184.338 418.986 185.857L416.06 185.818C416.465 181.003 416.748 172.549 416.911 160.458L419.837 160.497C420.663 168.458 422.279 174.442 424.685 178.449C427.092 182.372 431.264 184.373 437.2 184.453C440.169 184.493 442.81 183.556 445.126 181.643C447.442 179.729 448.628 176.7 448.684 172.557C448.729 169.259 447.621 166.454 445.362 164.14C443.188 161.827 439.578 159.03 434.533 155.748C430.413 153.071 427.219 150.871 424.952 149.149C422.77 147.429 420.932 145.332 419.439 142.859C417.945 140.387 417.221 137.501 417.265 134.204C417.337 128.877 419.173 124.842 422.772 122.1C426.372 119.358 430.886 118.023 436.313 118.096Z" fill="#253194"/>
<path d="M64.9413 111.564L64.3592 154.752C64.2772 160.83 64.8597 165.237 66.1065 167.974C67.3533 170.711 69.5746 172.58 72.7703 173.583C75.966 174.586 81.1715 175.296 88.3866 175.714L88.3219 180.512C79.9859 179.92 68.1973 179.521 52.9562 179.315C39.159 179.13 28.888 179.231 22.1434 179.62L22.2081 174.822C27.988 174.579 32.1678 173.996 34.7477 173.071C37.488 172.148 39.3578 170.333 40.357 167.627C41.3563 164.921 41.8968 160.528 41.9788 154.45L43.5828 35.4448C43.6647 29.3665 43.2427 24.9613 42.3168 22.2291C41.3908 19.497 39.5706 17.6326 36.8562 16.6361C34.3022 15.6418 30.1396 14.9458 24.3683 14.548L24.433 9.74942C31.1647 10.3201 40.9479 10.6919 53.7825 10.8649L79.7759 10.9753C82.8263 10.8564 86.2767 10.823 90.127 10.8749C108.898 11.1279 123.198 15.6401 133.029 24.4117C142.861 33.0233 147.68 44.527 147.486 58.9229C147.368 67.7203 145.248 76.1708 141.127 84.2744C137.169 92.2202 130.421 98.8485 120.882 104.159C111.503 109.472 99.0333 112.024 83.4713 111.814L64.9413 111.564ZM84.0494 15.3524C79.0759 15.2854 75.2982 15.7944 72.7162 16.8795C70.2946 17.9667 68.5831 19.9435 67.5817 22.8097C66.5803 25.6758 66.0408 29.9881 65.9632 35.7464L65.006 106.766L81.1295 106.983C96.8519 107.195 107.737 103.182 113.785 94.9447C119.996 86.5493 123.196 75.3136 123.386 61.2377C123.595 45.7222 120.621 34.2434 114.463 26.8012C108.466 19.3612 98.3279 15.5449 84.0494 15.3524Z" fill="#253194"/>
<path d="M271.056 195.483C270.277 195.515 269.703 195.594 269.334 195.718C268.987 195.843 268.746 196.088 268.611 196.452C268.477 196.816 268.404 197.408 268.393 198.226L268.177 214.254C268.166 215.072 268.223 215.666 268.347 216.034C268.472 216.402 268.706 216.653 269.05 216.787C269.416 216.921 269.987 217.015 270.765 217.069L270.756 217.715C269.763 217.637 268.391 217.586 266.641 217.562C264.783 217.537 263.4 217.551 262.491 217.603L262.5 216.957C263.278 216.925 263.841 216.846 264.189 216.721C264.558 216.597 264.81 216.352 264.944 215.988C265.079 215.624 265.152 215.032 265.163 214.213L265.379 198.186C265.39 197.367 265.333 196.774 265.208 196.406C265.084 196.038 264.838 195.787 264.473 195.653C264.129 195.519 263.568 195.425 262.791 195.371L262.8 194.725C263.706 194.802 265.089 194.853 266.947 194.878C268.675 194.901 270.048 194.887 271.064 194.837L271.056 195.483ZM284.174 200.798C285.685 200.819 286.826 201.244 287.593 202.073C287.997 202.509 288.281 203.052 288.446 203.7C288.61 204.349 288.685 205.222 288.67 206.321L288.554 214.949C288.542 215.832 288.716 216.448 289.08 216.798C289.442 217.126 290.078 217.296 290.985 217.309L290.976 217.987C288.989 217.874 287.693 217.814 287.089 217.806C286.483 217.797 285.273 217.824 283.457 217.886L283.466 217.207C284.265 217.218 284.818 217.064 285.126 216.745C285.454 216.404 285.625 215.793 285.637 214.91L285.762 205.571C285.779 204.365 285.618 203.446 285.281 202.817C284.944 202.166 284.245 201.834 283.187 201.819C282.301 201.807 281.509 202.055 280.811 202.563C280.112 203.071 279.563 203.774 279.162 204.674C278.782 205.552 278.585 206.541 278.571 207.639L278.474 214.813C278.462 215.696 278.604 216.312 278.903 216.661C279.223 216.989 279.782 217.158 280.582 217.168L280.572 217.847C278.759 217.736 277.549 217.677 276.944 217.669C276.339 217.661 275.042 217.686 273.053 217.746L273.062 217.067C273.97 217.079 274.609 216.926 274.981 216.608C275.353 216.268 275.545 215.657 275.557 214.774L275.693 204.66C275.707 203.668 275.532 202.944 275.171 202.487C274.81 202.03 274.176 201.795 273.268 201.783L273.277 201.104C273.968 201.178 274.637 201.219 275.286 201.228C276.647 201.246 277.772 201.111 278.662 200.821L278.611 204.634C279.169 203.262 279.928 202.282 280.887 201.691C281.868 201.08 282.963 200.782 284.174 200.798ZM300.738 192.845C301.862 192.86 302.798 193.164 303.546 193.755C304.209 194.303 304.534 194.975 304.524 195.772C304.517 196.268 304.349 196.675 304.021 196.994C303.692 197.312 303.279 197.469 302.783 197.462C302.286 197.455 301.867 197.298 301.525 196.992C301.183 196.665 301.016 196.232 301.024 195.693C301.03 195.24 301.154 194.876 301.395 194.599C301.658 194.322 301.995 194.144 302.407 194.063C302.345 193.847 302.175 193.672 301.895 193.539C301.616 193.406 301.26 193.337 300.829 193.331C300.353 193.324 299.93 193.426 299.56 193.637C299.19 193.848 298.905 194.135 298.706 194.498C298.462 194.925 298.292 195.559 298.194 196.398C298.118 197.237 298.066 198.648 298.04 200.63L298.028 201.47L301.496 201.517L301.487 202.163L298.02 202.116L297.849 214.751C297.836 215.742 298.108 216.435 298.664 216.83C299.242 217.226 300.104 217.432 301.249 217.447L301.24 218.126L300.462 218.083C298.259 217.989 296.856 217.937 296.25 217.929C295.689 217.922 294.413 217.947 292.424 218.007L292.433 217.328C293.341 217.34 293.981 217.187 294.352 216.869C294.724 216.529 294.916 215.918 294.928 215.035L295.103 202.077L292.51 202.042L292.518 201.396L295.111 201.431C295.137 199.535 295.276 198.072 295.527 197.041C295.778 196.01 296.223 195.133 296.859 194.409C297.298 193.919 297.854 193.539 298.528 193.268C299.202 192.975 299.938 192.834 300.738 192.845ZM310.786 201.157C312.99 201.187 314.752 201.943 316.072 203.426C317.413 204.888 318.064 207.095 318.025 210.046C317.985 212.997 317.275 215.185 315.894 216.61C314.535 218.036 312.753 218.733 310.549 218.704C308.346 218.674 306.573 217.928 305.231 216.467C303.911 215.005 303.27 212.798 303.31 209.847C303.35 206.896 304.05 204.708 305.409 203.282C306.79 201.836 308.582 201.127 310.786 201.157ZM310.777 201.803C309.481 201.786 308.445 202.44 307.671 203.765C306.898 205.07 306.492 207.111 306.454 209.89C306.417 212.669 306.767 214.72 307.506 216.045C308.244 217.369 309.262 218.04 310.558 218.057C311.855 218.075 312.89 217.432 313.664 216.128C314.437 214.824 314.843 212.782 314.881 210.003C314.918 207.224 314.568 205.173 313.829 203.848C313.091 202.503 312.074 201.821 310.777 201.803ZM330.681 201.425C331.546 201.437 332.244 201.694 332.778 202.197C333.333 202.7 333.606 203.307 333.596 204.018C333.589 204.578 333.41 205.06 333.058 205.465C332.729 205.848 332.283 206.036 331.721 206.029C331.246 206.022 330.838 205.866 330.496 205.56C330.176 205.254 330.019 204.842 330.026 204.325C330.036 203.614 330.411 203.038 331.152 202.595C331.003 202.377 330.778 202.267 330.475 202.263C329.633 202.252 328.861 202.575 328.161 203.234C327.461 203.871 326.91 204.661 326.508 205.603C326.106 206.545 325.9 207.437 325.888 208.277L325.796 215.128C325.783 216.119 326.055 216.812 326.611 217.207C327.189 217.603 328.051 217.808 329.196 217.824L329.187 218.502L328.409 218.46C326.206 218.365 324.803 218.314 324.197 218.306C323.636 218.298 322.36 218.324 320.371 218.384L320.38 217.705C321.288 217.717 321.928 217.564 322.299 217.246C322.671 216.906 322.863 216.295 322.875 215.412L323.011 205.297C323.025 204.306 322.85 203.582 322.489 203.125C322.128 202.667 321.494 202.433 320.586 202.42L320.595 201.742C321.286 201.816 321.955 201.857 322.604 201.866C323.965 201.884 325.091 201.748 325.98 201.459L325.926 205.498C326.329 204.427 326.958 203.476 327.812 202.647C328.688 201.819 329.644 201.411 330.681 201.425ZM359.736 215.908C359.724 216.791 359.899 217.408 360.262 217.758C360.625 218.086 361.261 218.256 362.168 218.268L362.159 218.947C360.172 218.834 358.876 218.773 358.271 218.765C357.666 218.757 356.456 218.783 354.64 218.845L354.649 218.167C355.448 218.178 356.001 218.023 356.308 217.704C356.637 217.364 356.807 216.752 356.819 215.869L356.945 206.53C356.956 205.712 356.911 205.054 356.81 204.557C356.73 204.039 356.509 203.616 356.146 203.288C355.804 202.96 355.266 202.791 354.532 202.781C353.711 202.77 352.962 203.018 352.285 203.526C351.608 204.034 351.07 204.738 350.668 205.638C350.289 206.516 350.092 207.494 350.078 208.571L349.981 215.777C349.969 216.66 350.144 217.276 350.507 217.626C350.87 217.954 351.505 218.124 352.413 218.137L352.403 218.815C350.416 218.702 349.12 218.642 348.516 218.634C347.911 218.625 346.7 218.652 344.884 218.714L344.893 218.035C345.692 218.046 346.245 217.892 346.553 217.573C346.882 217.232 347.052 216.621 347.064 215.738L347.19 206.399C347.201 205.581 347.155 204.922 347.054 204.426C346.974 203.907 346.753 203.484 346.39 203.156C346.049 202.828 345.511 202.659 344.776 202.65C343.955 202.638 343.206 202.887 342.53 203.395C341.853 203.903 341.314 204.607 340.913 205.506C340.533 206.406 340.336 207.395 340.322 208.472L340.225 215.645C340.213 216.528 340.356 217.144 340.654 217.493C340.974 217.821 341.533 217.99 342.333 218.001L342.324 218.679C340.51 218.569 339.3 218.509 338.695 218.501C338.09 218.493 336.793 218.518 334.804 218.578L334.814 217.899C335.721 217.912 336.36 217.759 336.732 217.441C337.104 217.101 337.296 216.489 337.308 215.606L337.444 205.492C337.458 204.501 337.284 203.777 336.923 203.319C336.561 202.862 335.927 202.627 335.02 202.615L335.029 201.936C335.719 202.01 336.389 202.052 337.037 202.06C338.398 202.079 339.523 201.943 340.414 201.653L340.362 205.467C340.899 204.138 341.646 203.167 342.606 202.556C343.565 201.922 344.607 201.613 345.73 201.628C347.199 201.648 348.318 202.073 349.085 202.902C349.617 203.469 349.94 204.335 350.054 205.5C350.612 204.15 351.371 203.191 352.33 202.622C353.289 202.031 354.34 201.744 355.486 201.76C356.955 201.779 358.073 202.204 358.84 203.033C359.223 203.469 359.486 204.022 359.628 204.692C359.792 205.362 359.867 206.225 359.853 207.281L359.736 215.908ZM367.915 219.251C366.553 219.232 365.543 218.885 364.881 218.208C364.243 217.51 363.931 216.557 363.947 215.351C363.961 214.382 364.231 213.588 364.758 212.97C365.306 212.353 365.939 211.866 366.657 211.509C367.397 211.153 368.364 210.778 369.558 210.385C370.774 209.992 371.675 209.627 372.263 209.29C372.851 208.953 373.149 208.494 373.157 207.912L373.184 205.909C373.201 204.659 372.942 203.805 372.408 203.345C371.896 202.864 371.165 202.617 370.214 202.605C368.702 202.584 367.627 202.958 366.989 203.725C367.42 203.838 367.774 204.069 368.05 204.418C368.348 204.767 368.493 205.199 368.486 205.716C368.479 206.255 368.3 206.683 367.95 207.002C367.601 207.299 367.155 207.444 366.615 207.436C366.011 207.428 365.559 207.239 365.261 206.869C364.964 206.477 364.819 206.012 364.826 205.473C364.833 204.956 364.958 204.527 365.2 204.185C365.464 203.844 365.847 203.505 366.348 203.167C366.872 202.808 367.536 202.514 368.338 202.288C369.141 202.063 370.017 201.956 370.968 201.968C372.653 201.991 373.923 202.407 374.776 203.216C375.31 203.718 375.658 204.326 375.821 205.04C376.006 205.731 376.091 206.649 376.076 207.79L375.955 216.773C375.948 217.312 376.019 217.701 376.166 217.94C376.314 218.178 376.572 218.301 376.939 218.306C377.198 218.309 377.437 218.258 377.654 218.154C377.894 218.028 378.145 217.859 378.407 217.647L378.756 218.201C378.189 218.624 377.698 218.93 377.285 219.118C376.893 219.285 376.396 219.365 375.79 219.357C374.753 219.343 374.033 219.074 373.629 218.552C373.226 218.029 373.03 217.326 373.042 216.443C372.379 217.511 371.623 218.256 370.775 218.675C369.927 219.073 368.974 219.265 367.915 219.251ZM369.358 217.977C370.784 217.996 372.016 217.195 373.054 215.571L373.139 209.237C372.94 209.536 372.667 209.78 372.319 209.97C371.971 210.159 371.437 210.41 370.72 210.724C369.895 211.058 369.22 211.382 368.697 211.698C368.196 211.993 367.759 212.407 367.384 212.941C367.009 213.475 366.816 214.162 366.805 215.002C366.792 215.971 367.02 216.707 367.488 217.209C367.957 217.71 368.58 217.967 369.358 217.977ZM385.159 202.644L389.955 202.709L389.947 203.355L385.15 203.291L384.981 215.796C384.968 216.766 385.132 217.468 385.472 217.904C385.834 218.339 386.349 218.562 387.019 218.571C387.689 218.58 388.265 218.319 388.747 217.786C389.23 217.254 389.642 216.376 389.982 215.153L390.628 215.323C390.049 218.288 388.624 219.756 386.355 219.725C385.621 219.715 385.017 219.621 384.543 219.442C384.071 219.264 383.653 218.988 383.29 218.618C382.822 218.137 382.494 217.551 382.309 216.859C382.146 216.168 382.071 215.24 382.087 214.077L382.233 203.251L379.122 203.209L379.13 202.563L382.242 202.605L382.308 197.661C383.519 197.635 384.494 197.497 385.231 197.248L385.159 202.644ZM395.203 194.668C395.764 194.675 396.248 194.886 396.653 195.301C397.058 195.716 397.257 196.204 397.249 196.764C397.242 197.323 397.03 197.805 396.614 198.209C396.197 198.613 395.708 198.811 395.147 198.804C394.585 198.796 394.102 198.585 393.697 198.17C393.291 197.755 393.093 197.268 393.101 196.708C393.108 196.148 393.32 195.666 393.736 195.262C394.152 194.858 394.641 194.66 395.203 194.668ZM396.595 216.405C396.583 217.288 396.759 217.905 397.122 218.254C397.484 218.583 398.12 218.753 399.027 218.765L399.018 219.444C397.032 219.33 395.724 219.27 395.098 219.261C394.472 219.253 393.163 219.278 391.175 219.338L391.184 218.659C392.091 218.671 392.731 218.519 393.103 218.2C393.474 217.86 393.667 217.249 393.678 216.366L393.815 206.252C393.828 205.26 393.654 204.537 393.293 204.079C392.932 203.622 392.297 203.387 391.39 203.375L391.399 202.696C392.089 202.77 392.759 202.812 393.407 202.82C394.768 202.839 395.894 202.703 396.784 202.413L396.595 216.405ZM415.342 222.831C415.332 223.585 415.476 224.104 415.775 224.388C416.095 224.694 416.654 224.852 417.454 224.863L417.445 225.542C415.631 225.431 414.465 225.372 413.946 225.365C413.341 225.357 412.034 225.372 410.023 225.409L409.277 225.432L409.287 224.753C410.324 224.767 411.104 224.606 411.627 224.268C412.15 223.951 412.417 223.351 412.429 222.468L412.504 216.911C412.058 217.917 411.432 218.695 410.625 219.245C409.84 219.773 408.939 220.03 407.924 220.016C406.649 219.999 405.508 219.66 404.502 219C403.516 218.341 402.741 217.35 402.175 216.028C401.61 214.706 401.34 213.086 401.366 211.169C401.391 209.273 401.715 207.673 402.338 206.367C402.96 205.039 403.795 204.059 404.841 203.427C405.908 202.773 407.102 202.455 408.42 202.473C409.522 202.488 410.437 202.694 411.167 203.092C411.896 203.468 412.493 204.069 412.958 204.894L415.292 202.501L415.84 202.735C415.681 203.272 415.597 203.895 415.588 204.606L415.342 222.831ZM408.877 219.059C409.676 219.07 410.405 218.757 411.062 218.119C411.74 217.482 412.228 216.573 412.525 215.392L412.659 205.407C412.258 204.69 411.714 204.155 411.028 203.801C410.341 203.426 409.555 203.232 408.669 203.22C407.373 203.202 406.359 203.857 405.628 205.183C404.918 206.509 404.546 208.519 404.509 211.211C404.475 213.797 404.826 215.751 405.565 217.076C406.325 218.379 407.429 219.04 408.877 219.059ZM433.694 216.42C433.681 217.412 433.854 218.136 434.216 218.593C434.577 219.05 435.212 219.285 436.119 219.297L436.11 219.976C435.441 219.902 434.771 219.861 434.102 219.852C432.741 219.833 431.615 219.969 430.725 220.259L430.776 216.446C430.24 217.774 429.492 218.745 428.533 219.357C427.573 219.968 426.532 220.267 425.409 220.252C423.939 220.232 422.822 219.807 422.055 218.978C421.672 218.543 421.398 217.989 421.234 217.319C421.092 216.649 421.028 215.787 421.042 214.731L421.152 206.62C421.165 205.629 420.991 204.905 420.63 204.448C420.268 203.99 419.634 203.756 418.727 203.743L418.736 203.065C419.404 203.138 420.074 203.18 420.744 203.189C422.105 203.207 423.23 203.071 424.121 202.782L423.95 215.481C423.939 216.299 423.972 216.968 424.052 217.486C424.153 217.983 424.375 218.396 424.716 218.723C425.079 219.051 425.628 219.22 426.363 219.23C427.184 219.241 427.932 218.993 428.61 218.485C429.286 217.977 429.814 217.284 430.194 216.406C430.595 215.506 430.802 214.517 430.817 213.441L430.907 206.752C430.921 205.76 430.746 205.036 430.385 204.579C430.024 204.122 429.39 203.887 428.482 203.875L428.491 203.196C429.16 203.27 429.829 203.311 430.5 203.32C431.861 203.339 432.986 203.203 433.876 202.913L433.694 216.42ZM451.884 216.278C451.479 217.458 450.73 218.47 449.638 219.318C448.568 220.144 447.277 220.547 445.764 220.526C444.231 220.505 442.906 220.143 441.792 219.438C440.678 218.712 439.827 217.721 439.239 216.463C438.672 215.184 438.4 213.715 438.423 212.056C438.448 210.182 438.772 208.56 439.396 207.189C440.02 205.818 440.887 204.775 441.999 204.057C443.111 203.318 444.402 202.958 445.871 202.978C447.816 203.004 449.299 203.616 450.32 204.815C451.363 205.993 451.868 207.777 451.836 210.169L441.692 210.032C441.619 210.635 441.577 211.323 441.567 212.099C441.547 213.521 441.758 214.762 442.197 215.824C442.658 216.886 443.263 217.713 444.011 218.305C444.782 218.875 445.588 219.166 446.431 219.178C447.468 219.192 448.389 218.956 449.196 218.472C450.002 217.987 450.683 217.167 451.239 216.011L451.884 216.278ZM445.733 203.59C444.718 203.576 443.836 204.06 443.088 205.041C442.34 206.023 441.866 207.481 441.668 209.418L448.733 209.513C448.799 207.833 448.57 206.43 448.044 205.302C447.541 204.174 446.77 203.604 445.733 203.59Z" fill="#253194"/>
<path d="M146.497 94.3327C183.165 88.9577 224.828 86.2008 268.971 86.7958C415.079 88.7652 533.033 126.711 532.429 171.55C531.825 216.39 412.891 251.142 266.782 249.173C120.674 247.204 2.72024 209.258 3.32462 164.419C3.51743 150.113 15.755 136.834 37.0769 125.447" stroke="#253194" stroke-width="3"/>
</g>
<defs>
<clipPath id="clip0">
<rect width="532.394" height="290.851" fill="white" transform="translate(3.91992) rotate(0.772224)"/>
</clipPath>
</defs>
</svg>
